# Blender v3.1.2 OBJ File: ''
# www.blender.org
mtllib objCube.mtl
o 立方体_立方体.001
v -1.000000 -1.000000 1.524717
v -1.000000 1.000000 1.000000
v -1.000000 -1.000000 -1.524717
v -1.000000 1.000000 -1.000000
v 1.000000 -1.000000 0.000000
v 1.000000 1.000000 0.000000
v -1.000000 3.065239 1.000000
v -1.000000 3.065239 -1.000000
v 1.000000 3.065239 0.000000
v -1.000000 5.120478 -0.482260
v 1.000000 5.120478 0.000000
v -1.000000 5.120478 0.482260
vt 0.375000 0.000000
vt 0.625000 0.000000
vt 0.625000 0.250000
vt 0.375000 0.250000
vt 0.625000 0.500000
vt 0.375000 0.500000
vt 0.625000 0.250000
vt 0.625000 0.000000
vt 0.625000 0.000000
vt 0.625000 0.250000
vt 0.375000 0.750000
vt 0.625000 0.750000
vt 0.625000 1.000000
vt 0.375000 1.000000
vt 0.125000 0.500000
vt 0.125000 0.750000
vt 0.625000 0.500000
vt 0.625000 0.750000
vt 0.625000 1.000000
vt 0.625000 0.500000
vt 0.875000 0.500000
vt 0.875000 0.750000
vt 0.625000 0.750000
vt 0.625000 1.000000
vn -1.0000 -0.0000 0.0000
vn 0.5305 0.1103 -0.8405
vn 0.5305 0.1103 0.8405
vn 0.0000 -1.0000 0.0000
vn 0.4472 0.0000 -0.8944
vn 0.4472 0.0000 0.8944
vn 0.0000 1.0000 0.0000
vn 0.3451 0.1173 0.9312
vn 0.3451 0.1173 -0.9312
usemtl None
s off
f 1/1/1 2/2/1 4/3/1 3/4/1
f 3/4/2 4/3/2 6/5/2 5/6/2
f 8/7/1 7/8/1 12/9/1 10/10/1
f 5/11/3 6/12/3 2/13/3 1/14/3
f 3/15/4 5/11/4 1/16/4
f 6/5/5 4/3/5 8/7/5 9/17/5
f 2/13/6 6/12/6 9/18/6 7/19/6
f 4/3/1 2/2/1 7/8/1 8/7/1
f 11/20/7 10/21/7 12/22/7
f 7/19/8 9/18/8 11/23/8 12/24/8
f 9/17/9 8/7/9 10/10/9 11/20/9
