# Blender v3.1.2 OBJ File: ''
# www.blender.org
mtllib objCube.mtl
o 立方体
v -0.963194 -1.021408 0.824893
v -0.751521 0.508450 0.909449
v -1.154460 1.202593 -0.619828
v -1.046934 -0.877162 -1.077235
v 0.751521 1.491550 -0.909448
v 0.932950 -0.815957 -1.137259
v 1.154460 0.797407 0.619828
v 1.016792 -0.960747 0.765916
vt 0.625000 0.000000
vt 0.375000 0.250000
vt 0.375000 0.000000
vt 0.625000 0.250000
vt 0.375000 0.500000
vt 0.625000 0.750000
vt 0.375000 0.750000
vt 0.625000 1.000000
vt 0.375000 1.000000
vt 0.125000 0.750000
vt 0.125000 0.500000
vt 0.625000 0.500000
vt 0.875000 0.750000
vt 0.875000 0.500000
vn -0.9902 0.0111 0.1395
vn -0.9903 0.0125 0.1385
vn -0.9895 0.1339 0.0537
vn -0.1061 0.1425 -0.9841
vn -0.0960 0.1529 -0.9836
vn -0.0362 0.2129 -0.9764
vn 0.9917 0.0037 -0.1284
vn 0.9897 0.0187 -0.1419
vn 0.9954 -0.0821 -0.0501
vn 0.0935 0.0152 0.9955
vn 0.0808 -0.0002 0.9967
vn 0.0315 -0.0595 0.9977
vn 0.0284 -0.9966 -0.0770
vn 0.0284 -0.9966 -0.0769
vn 0.0285 -0.9966 -0.0768
vn -0.0716 0.9010 0.4278
vn -0.9724 -0.0969 0.2122
vn -0.1622 0.0843 -0.9832
vn 0.9724 0.0974 -0.2120
vn 0.1393 0.0712 0.9877
vn 0.0282 -0.9966 -0.0771
usemtl マテリアル
s 1
f 2/1/1 4/2/2 1/3/3
f 3/4/4 6/5/5 4/2/6
f 6/5/7 7/6/8 8/7/9
f 8/7/10 2/8/11 1/9/12
f 6/5/13 1/10/14 4/11/15
f 5/12/16 2/13/16 7/6/16
f 2/1/1 3/4/17 4/2/2
f 3/4/4 5/12/18 6/5/5
f 6/5/7 5/12/19 7/6/8
f 8/7/10 7/6/20 2/8/11
f 6/5/13 8/7/21 1/10/14
f 5/12/16 3/14/16 2/13/16
