# Blender v3.1.2 OBJ File: ''
# www.blender.org
mtllib tree.mtl
o Cube.001
v 5.279787 28.043589 5.279792
v 5.279787 28.043589 -5.279792
v -5.279797 28.043589 -5.279792
v -5.279797 28.043589 5.279792
v -5.279796 26.805717 -2.063155
v -5.279795 21.635567 -2.063155
v -6.147411 21.635565 -2.063155
v -6.147412 26.805716 -2.063155
v -5.279795 18.114889 -5.279792
v 5.279789 18.114889 -5.279792
v 1.302310 18.114889 1.302313
v -1.302316 18.114889 1.302313
v -1.302313 -0.000000 1.302313
v 1.302313 0.000000 1.302313
v -2.892175 18.600128 5.279792
v 4.810549 18.600128 5.279792
v 4.810549 18.600128 6.838006
v -2.892175 18.600128 6.838006
v 5.279788 20.226128 4.214737
v 5.279788 20.226128 -3.162749
v 6.782012 20.226130 -3.162749
v 6.782012 20.226130 4.214737
v 1.302310 18.114889 -1.302313
v -1.302316 18.114889 -1.302313
v 5.279789 18.114889 5.279792
v -5.279795 18.114889 5.279792
v 1.302313 0.000000 -1.302313
v -1.302313 -0.000000 -1.302313
v 1.302311 9.340996 -1.025628
v 1.302311 10.636389 -1.025628
v 6.175136 14.314596 -2.352705
v 6.953618 13.770063 -2.977970
v -1.302315 11.490244 0.619513
v -1.302315 12.893888 0.619513
v -7.102893 16.690268 0.601061
v -8.197775 16.193951 0.601061
v -1.302315 12.893888 -0.619513
v -1.302315 11.490244 -0.619513
v -7.102893 16.690268 -0.601061
v -8.197775 16.193951 -0.601061
v 1.302311 10.636389 0.309411
v 1.302311 9.340996 0.309411
v 7.665821 13.770063 -2.091247
v 6.887339 14.314596 -1.465981
v -9.370428 23.601742 -3.929307
v -7.113111 18.622068 -3.929307
v -7.113111 18.622068 -5.770695
v -9.370428 23.601742 -5.770695
v -6.270939 19.660072 1.666905
v -6.270939 19.660072 -1.661309
v -5.497539 20.010662 -1.661309
v -5.497539 20.010662 1.666905
v -9.396866 22.299786 3.929307
v -14.374598 20.043348 3.929307
v -14.374598 20.043348 5.546470
v -9.396866 22.299786 5.546470
v -12.453556 14.264779 3.929307
v -15.698125 21.422337 3.929307
v -15.698125 21.422337 -3.929307
v -12.453556 14.264779 -3.929307
v -8.540565 24.666903 3.929307
v -8.540565 24.666903 -3.929307
v -5.296000 17.509346 -3.929307
v -5.296000 17.509346 3.929307
v -8.172599 23.855162 -1.661309
v -8.172599 23.855162 1.666905
v -7.140430 17.322056 3.929307
v -12.118161 15.065619 3.929307
v -12.092782 16.364752 -3.929307
v -14.350100 21.344425 -3.929307
v -7.140430 17.322056 5.546470
v -12.118161 15.065619 5.546470
v -7.399199 24.205750 -1.661309
v -7.399199 24.205750 1.666905
v -12.092782 16.364752 -5.770695
v -14.350100 21.344425 -5.770695
v 3.947525 14.827095 -3.625470
v 6.154345 20.017313 -5.397957
v 10.200926 17.186808 -8.648111
v 7.994106 11.996590 -6.875625
v 10.093377 16.128067 -7.859976
v 12.285086 16.128067 -5.131205
v 12.910103 15.690880 -5.633208
v 10.718394 15.690880 -8.361979
v 10.572116 18.714094 -1.363590
v 9.499957 16.192488 -0.502448
v 9.996253 16.192488 0.115461
v 11.068412 18.714094 -0.745681
v 8.836576 18.772018 -0.973962
v 6.641047 18.772018 -3.707489
v 5.895028 19.293844 -3.108297
v 8.090557 19.293844 -0.374770
v 13.902982 17.186808 -4.038894
v 9.856401 20.017313 -0.788739
v 8.786885 13.055329 -6.810619
v 10.978594 13.055329 -4.081848
v 11.696162 11.996591 -2.266407
v 12.145354 17.613644 -2.627192
v 11.073195 15.092036 -1.766050
v 7.649580 14.827095 0.983747
v 5.332277 15.693925 -2.656303
v 7.527806 15.693925 0.077224
v 6.781786 16.215750 0.676415
v 4.586257 16.215748 -2.057112
v 11.569491 15.092036 -1.148141
v 12.641650 17.613644 -2.009283
v 9.411901 12.618142 -7.312622
v 11.603610 12.618142 -4.583851
v 5.279788 26.905483 4.214738
v 5.279788 26.905483 -3.162749
v 6.782011 26.905485 -3.162749
v 6.782011 26.905485 4.214738
v -5.279796 26.805717 2.063155
v -5.279795 21.635567 2.063155
v -6.147411 21.635565 2.063155
v -6.147412 26.805716 2.063155
v 4.810548 25.774185 5.279792
v -2.892176 25.774185 5.279792
v 4.810548 25.774185 6.838006
v -2.892176 25.774185 6.838006
vt 0.930990 0.500000
vt 0.875000 0.500000
vt 0.875000 0.750000
vt 0.930990 0.750000
vt 0.578796 0.956556
vt 0.421204 0.956556
vt 0.421204 0.956556
vt 0.578796 0.956556
vt 0.680990 0.000000
vt 0.930990 0.000000
vt 0.930990 0.250000
vt 0.680990 0.250000
vt 0.171566 0.581038
vt 0.171566 0.668962
vt 0.171566 0.668962
vt 0.171566 0.581038
vt 0.392218 0.733811
vt 0.392218 0.516189
vt 0.392218 0.516189
vt 0.392218 0.733811
vt 0.424008 0.453919
vt 0.424008 0.296080
vt 0.424008 0.296080
vt 0.424008 0.453919
vt 0.762027 0.581038
vt 0.762027 0.668962
vt 0.680990 0.750000
vt 0.680990 0.500000
vt 0.849952 0.581038
vt 0.930990 0.500000
vt 0.849952 0.668962
vt 0.930990 0.750000
vt 0.083642 0.581038
vt 0.083642 0.668962
vt 0.105071 0.581038
vt 0.105071 0.581038
vt 0.105071 0.581038
vt 0.105071 0.581038
vt 0.135987 0.668962
vt 0.135987 0.668962
vt 0.135987 0.668962
vt 0.135987 0.668962
vt 0.083642 0.668962
vt 0.083642 0.581038
vt 0.119222 0.668962
vt 0.119222 0.668962
vt 0.119222 0.668962
vt 0.119222 0.668962
vt 0.150138 0.581038
vt 0.150138 0.581038
vt 0.150138 0.581038
vt 0.150138 0.581038
vt 0.573262 0.198262
vt 0.426738 0.198262
vt 0.426738 0.198262
vt 0.573262 0.198262
vt 0.433305 0.441695
vt 0.433305 0.308305
vt 0.433305 0.308305
vt 0.433305 0.441695
vt 0.564070 0.560930
vt 0.564070 0.689070
vt 0.564070 0.689070
vt 0.564070 0.560930
vt 0.680990 0.750000
vt 0.930990 0.750000
vt 0.930990 1.000000
vt 0.680990 1.000000
vt 0.930990 0.500000
vt 0.875000 0.500000
vt 0.875000 0.750000
vt 0.774556 0.593567
vt 0.774556 0.656433
vt 0.680990 0.750000
vt 0.680990 0.500000
vt 0.837423 0.593567
vt 0.930990 0.500000
vt 0.837423 0.656433
vt 0.930990 0.750000
vt 0.872685 0.308305
vt 0.739295 0.308305
vt 0.680990 0.250000
vt 0.930990 0.250000
vt 0.739295 0.441695
vt 0.680990 0.500000
vt 0.872685 0.441695
vt 0.870060 0.560930
vt 0.741919 0.560930
vt 0.741919 0.689070
vt 0.870060 0.689070
vt 0.732727 0.051738
vt 0.732727 0.198262
vt 0.680990 0.000000
vt 0.879252 0.051738
vt 0.930990 0.000000
vt 0.879252 0.198262
vt 0.435930 0.560930
vt 0.435930 0.689070
vt 0.435930 0.560930
vt 0.435930 0.689070
vt 0.566695 0.308305
vt 0.566695 0.441695
vt 0.566695 0.308305
vt 0.566695 0.441695
vt 0.426738 0.051738
vt 0.573262 0.051738
vt 0.426738 0.051738
vt 0.573262 0.051738
vt 0.679688 0.000000
vt 0.929688 0.000000
vt 0.929688 0.250000
vt 0.679688 0.250000
vt 0.574003 0.300997
vt 0.574003 0.449003
vt 0.574003 0.449003
vt 0.574003 0.300997
vt 0.555575 0.680575
vt 0.444425 0.680575
vt 0.444425 0.680575
vt 0.555575 0.680575
vt 0.559164 0.815836
vt 0.559164 0.934164
vt 0.559164 0.934164
vt 0.559164 0.815836
vt 0.929688 0.500000
vt 0.875000 0.500000
vt 0.875000 0.750000
vt 0.929688 0.750000
vt 0.878691 0.300997
vt 0.730684 0.300997
vt 0.730684 0.449003
vt 0.679688 0.500000
vt 0.878691 0.449003
vt 0.860263 0.569425
vt 0.749112 0.569425
vt 0.749112 0.680575
vt 0.679688 0.750000
vt 0.860263 0.680575
vt 0.745523 0.934164
vt 0.863851 0.934164
vt 0.929688 1.000000
vt 0.679688 1.000000
vt 0.863851 0.815836
vt 0.745523 0.815836
vt 0.440836 0.815836
vt 0.440836 0.934164
vt 0.440836 0.815836
vt 0.440836 0.934164
vt 0.444425 0.569425
vt 0.555575 0.569425
vt 0.444425 0.569425
vt 0.555575 0.569425
vt 0.425997 0.300997
vt 0.425997 0.449003
vt 0.425997 0.300997
vt 0.425997 0.449003
vt 0.781942 0.600953
vt 0.781942 0.649047
vt 0.680990 0.750000
vt 0.680990 0.500000
vt 0.830037 0.600953
vt 0.930990 0.500000
vt 0.830037 0.649047
vt 0.930990 0.750000
vt 0.729998 0.296080
vt 0.729998 0.453919
vt 0.680990 0.500000
vt 0.881981 0.453920
vt 0.881981 0.296081
vt 0.575992 0.296081
vt 0.575992 0.453920
vt 0.575992 0.296081
vt 0.575992 0.453920
vt 0.727194 0.956556
vt 0.884785 0.956556
vt 0.930990 1.000000
vt 0.680990 1.000000
vt 0.884786 0.793444
vt 0.727194 0.793444
vt 0.680990 0.750000
vt 0.421204 0.793444
vt 0.578796 0.793444
vt 0.421204 0.793444
vt 0.578796 0.793444
vt 0.913772 0.516189
vt 0.698207 0.516189
vt 0.698207 0.733811
vt 0.913772 0.733811
vt 0.607782 0.516189
vt 0.607782 0.733811
vt 0.607782 0.733811
vt 0.607782 0.516189
vn 0.0000 1.0000 0.0000
vn 0.0000 0.0000 -1.0000
vn -0.0000 0.0000 1.0000
vn 0.0000 -1.0000 0.0000
vn -0.3929 0.1425 -0.9085
vn -0.0021 0.0012 1.0000
vn -1.0000 -0.0000 -0.0000
vn 0.5476 0.8367 0.0000
vn -0.0021 0.0012 -1.0000
vn -0.5635 -0.8261 0.0000
vn 1.0000 0.0000 -0.0000
vn 0.5428 -0.8217 -0.1740
vn 0.4071 -0.1347 0.9034
vn -0.5325 0.8290 0.1707
vn 0.9108 0.4129 0.0000
vn 0.4129 -0.9108 0.0000
vn -0.4129 0.9108 0.0000
vn -0.9108 -0.4129 0.0000
vn -0.6262 -0.0000 -0.7797
vn 0.3733 0.8779 -0.2998
vn -0.6845 0.4788 0.5498
vn 0.6845 -0.4788 -0.5498
vn 0.6262 0.0000 0.7797
vn -0.3733 -0.8779 0.2998
usemtl Material.001
s 1
f 1/1/1 2/2/1 3/3/1 4/4/1
f 5/5/2 6/6/2 7/7/2 8/8/2
f 9/9/2 3/10/2 2/11/2 10/12/2
f 11/13/3 12/14/3 13/15/3 14/16/3
f 15/17/4 16/18/4 17/19/4 18/20/4
f 19/21/4 20/22/4 21/23/4 22/24/4
f 23/25/4 24/26/4 9/27/4 10/28/4
f 11/29/4 23/25/4 10/28/4 25/30/4
f 24/26/4 12/31/4 26/32/4 9/27/4
f 12/31/4 11/29/4 25/30/4 26/32/4
f 27/33/4 14/16/4 13/15/4 28/34/4
f 29/35/5 30/36/5 31/37/5 32/38/5
f 33/39/6 34/40/6 35/41/6 36/42/6
f 24/43/2 23/44/2 27/33/2 28/34/2
f 37/45/7 34/40/7 12/14/7 24/43/7
f 33/39/7 38/46/7 28/34/7 13/15/7
f 34/40/7 33/39/7 13/15/7 12/14/7
f 38/46/7 37/45/7 24/43/7 28/34/7
f 34/40/8 37/45/8 39/47/8 35/41/8
f 37/45/9 38/46/9 40/48/9 39/47/9
f 38/46/10 33/39/10 36/42/10 40/48/10
f 41/49/11 30/36/11 23/44/11 11/13/11
f 29/35/11 42/50/11 14/16/11 27/33/11
f 42/50/11 41/49/11 11/13/11 14/16/11
f 30/36/11 29/35/11 27/33/11 23/44/11
f 42/50/12 29/35/12 32/38/12 43/51/12
f 41/49/13 42/50/13 43/51/13 44/52/13
f 30/36/14 41/49/14 44/52/14 31/37/14
f 45/53/15 46/54/15 47/55/15 48/56/15
f 49/57/16 50/58/16 51/59/16 52/60/16
f 53/61/17 54/62/17 55/63/17 56/64/17
f 57/65/18 58/66/18 59/67/18 60/68/18
f 61/69/17 62/70/17 59/71/17 58/66/17
f 39/72/16 40/73/16 60/74/16 63/75/16
f 35/76/16 39/72/16 63/75/16 64/77/16
f 36/78/16 35/76/16 64/77/16 57/79/16
f 40/73/16 36/78/16 57/79/16 60/74/16
f 65/80/15 50/81/15 63/82/15 62/83/15
f 50/81/15 49/84/15 64/85/15 63/82/15
f 66/86/15 65/80/15 62/83/15 61/69/15
f 49/84/15 66/86/15 61/69/15 64/85/15
f 53/87/3 67/88/3 64/85/3 61/69/3
f 67/88/3 68/89/3 57/65/3 64/85/3
f 54/90/3 53/87/3 61/69/3 58/66/3
f 68/89/3 54/90/3 58/66/3 57/65/3
f 69/91/2 46/92/2 63/82/2 60/93/2
f 70/94/2 69/91/2 60/93/2 59/95/2
f 45/96/2 70/94/2 59/95/2 62/83/2
f 46/92/2 45/96/2 62/83/2 63/82/2
f 71/97/3 56/64/3 55/63/3 72/98/3
f 67/99/15 53/61/15 56/64/15 71/97/15
f 54/62/18 68/100/18 72/98/18 55/63/18
f 68/100/16 67/99/16 71/97/16 72/98/16
f 51/59/15 73/101/15 74/102/15 52/60/15
f 65/103/17 66/104/17 74/102/17 73/101/17
f 50/58/2 65/103/2 73/101/2 51/59/2
f 66/104/3 49/57/3 52/60/3 74/102/3
f 75/105/2 76/106/2 48/56/2 47/55/2
f 69/107/18 70/108/18 76/106/18 75/105/18
f 70/108/17 45/53/17 48/56/17 76/106/17
f 46/54/16 69/107/16 75/105/16 47/55/16
f 77/109/19 78/110/19 79/111/19 80/112/19
f 81/113/20 82/114/20 83/115/20 84/116/20
f 85/117/21 86/118/21 87/119/21 88/120/21
f 89/121/20 90/122/20 91/123/20 92/124/20
f 93/125/20 79/126/20 78/127/20 94/128/20
f 81/129/22 95/130/22 80/112/22 79/111/22
f 95/130/22 96/131/22 97/132/22 80/112/22
f 82/133/22 81/129/22 79/111/22 93/125/22
f 96/131/22 82/133/22 93/125/22 97/132/22
f 98/134/23 99/135/23 97/132/23 93/125/23
f 99/135/23 86/136/23 100/137/23 97/132/23
f 85/138/23 98/134/23 93/125/23 94/128/23
f 86/136/23 85/138/23 94/128/23 100/137/23
f 101/139/21 90/140/21 78/141/21 77/142/21
f 89/143/21 102/144/21 100/137/21 94/128/21
f 102/144/21 101/139/21 77/142/21 100/137/21
f 90/140/21 89/143/21 94/128/21 78/141/21
f 103/145/21 92/124/21 91/123/21 104/146/21
f 102/147/23 89/121/23 92/124/23 103/145/23
f 101/148/24 102/147/24 103/145/24 104/146/24
f 90/122/19 101/148/19 104/146/19 91/123/19
f 105/149/23 106/150/23 88/120/23 87/119/23
f 86/118/24 99/151/24 105/149/24 87/119/24
f 98/152/20 85/117/20 88/120/20 106/150/20
f 99/151/22 98/152/22 106/150/22 105/149/22
f 107/153/22 84/116/22 83/115/22 108/154/22
f 95/155/19 81/113/19 84/116/19 107/153/19
f 82/114/23 96/156/23 108/154/23 83/115/23
f 96/156/24 95/155/24 107/153/24 108/154/24
f 32/157/24 31/158/24 77/159/24 80/160/24
f 43/161/24 32/157/24 80/160/24 97/162/24
f 44/163/24 43/161/24 97/162/24 100/164/24
f 31/158/24 44/163/24 100/164/24 77/159/24
f 20/165/11 19/166/11 25/167/11 10/12/11
f 19/166/11 109/168/11 1/1/11 25/167/11
f 110/169/11 20/165/11 10/12/11 2/11/11
f 109/168/11 110/169/11 2/11/11 1/1/11
f 21/23/11 111/170/11 112/171/11 22/24/11
f 110/172/1 109/173/1 112/171/1 111/170/1
f 109/173/3 19/21/3 22/24/3 112/171/3
f 20/22/2 110/172/2 111/170/2 21/23/2
f 6/174/7 5/175/7 3/176/7 9/177/7
f 113/178/7 114/179/7 26/180/7 4/4/7
f 5/175/7 113/178/7 4/4/7 3/176/7
f 114/179/7 6/174/7 9/177/7 26/180/7
f 115/181/7 116/182/7 8/8/7 7/7/7
f 6/6/4 114/183/4 115/181/4 7/7/4
f 114/183/3 113/184/3 116/182/3 115/181/3
f 113/184/1 5/5/1 8/8/1 116/182/1
f 117/185/3 16/186/3 25/167/3 1/1/3
f 15/187/3 118/188/3 4/4/3 26/180/3
f 118/188/3 117/185/3 1/1/3 4/4/3
f 16/186/3 15/187/3 26/180/3 25/167/3
f 17/19/3 119/189/3 120/190/3 18/20/3
f 118/191/7 15/17/7 18/20/7 120/190/7
f 117/192/1 118/191/1 120/190/1 119/189/1
f 16/18/11 117/192/11 119/189/11 17/19/11
